<svg id="Capa_1" enable-background="new 0 0 512 512" height="512" viewBox="0 0 512 512" width="512" xmlns="http://www.w3.org/2000/svg"><g><g><path d="m451.847 415c31.66-41.701 50.278-93.845 49.745-150.365-1.29-136.603-112.975-245.093-249.562-242.593-133.2 2.438-240.427 111.176-240.427 244.958 0 55.609 18.538 106.881 49.756 148 128.096 32.804 262.392 32.804 390.488 0z" fill="#fed2a4"/></g><path d="m26 349.907c8.626 23.989 20.891 46.238 36.125 66.093h11.875v-67h-48z" fill="#fe646f"/><g><path d="m426.103 159.5h50v15h-50z" fill="#9c9c9c"/></g><g><path d="m426.103 198.5h50v15h-50z" fill="#9c9c9c"/></g><g><path d="m426.103 237.5h50v15h-50z" fill="#9c9c9c"/></g><g><path d="m426.103 276.5h50v15h-50z" fill="#9c9c9c"/></g><g><path d="m426.103 315.5h50v15h-50z" fill="#9c9c9c"/></g><g><path d="m426.103 354.5h50v15h-50z" fill="#9c9c9c"/></g><path d="m472.603 117.75h-97.459v15h36.959v283.25h15v-283.25h45.5c1.379 0 2.5 1.122 2.5 2.5v242.677c5.943-11.682 10.969-23.907 15-36.577v-206.1c0-9.649-7.851-17.5-17.5-17.5z" fill="#5a5a5a"/><g><path d="m391.491 389h-30.438c-3.978 0-7.794-1.58-10.607-4.394l-110.333-110.334c-10.418-10.419-24.55-16.272-39.285-16.272h-6.226v30h6.226c6.778 0 13.279 2.693 18.071 7.485l110.336 110.335c4.521 4.521 9.84 7.95 15.634 10.18h56.623v-17c-.001-5.523-4.478-10-10.001-10z" fill="#fe646f"/></g><path d="m366.165 406c-12.02 0-23.32-4.681-31.819-13.18l-110.335-110.335c-4.793-4.793-11.293-7.485-18.071-7.485h-10.337v13h5.226c6.778 0 13.279 2.693 18.071 7.485l110.335 110.335c3.892 3.892 8.376 6.972 13.243 9.18h59.014v-9z" fill="#fd4755"/><path d="m190.603 213h-11.603v82h11.603c2.761 0 5-2.239 5-5v-72c0-2.761-2.239-5-5-5z" fill="#0182fc"/><g fill="#5a5a5a"><path d="m229.062 117.75h50v15h-50z"/><path d="m179 117.75h27.062v15h-27.062z"/><path d="m302.062 117.75h50.082v15h-50.082z"/></g><g><g><path d="m132 349h48v67h-48z" fill="#fe646f"/><path d="m132 350h20.603v65h-20.603z" fill="#fd4755"/></g><path d="m26 102.725h154v106.275h-154z" fill="#fe646f"/><path d="m26 103.725h21v105.275h-21z" fill="#fd4755"/><path d="m132 209v-44.207c0-16.016-12.984-29-29-29-16.016 0-29 12.984-29 29v44.207z" fill="#fb2b3a"/><path d="m26 208h154v142h-154z" fill="#0593fc"/><path d="m26 208h20.603v142h-20.603z" fill="#0182fc"/><path d="m103 323.472c-24.343 0-44.076-19.733-44.076-44.075 0-24.342 19.733-44.075 44.075-44.075h.001c24.342 0 44.075 19.733 44.075 44.075.001 24.342-19.733 44.075-44.075 44.075z" fill="#0182fc"/><path d="m103 308.472c-16.032 0-29.076-13.043-29.076-29.075s13.044-29.076 29.076-29.076 29.075 13.043 29.075 29.075-13.043 29.076-29.075 29.076z" fill="#fff"/><path d="m94.603 279.396c0-12.391 7.795-22.991 18.737-27.169-3.215-1.228-6.698-1.906-10.339-1.906-16.032 0-29.076 13.043-29.076 29.075s13.043 29.076 29.075 29.076c3.641 0 7.125-.679 10.339-1.906-10.941-4.179-18.736-14.778-18.736-27.17z" fill="#eaf6ff"/><path d="m99.049 1.71-87.174 92.89c-3.247 3.459-.794 9.125 3.951 9.125h174.348c4.744 0 7.197-5.666 3.951-9.125l-87.174-92.89c-2.14-2.28-5.761-2.28-7.902 0z" fill="#0593fc"/><path d="m43.081 94.6 75.522-80.473-11.652-12.417c-2.14-2.281-5.761-2.281-7.901 0l-87.175 92.89c-3.247 3.459-.794 9.125 3.951 9.125h31.205c-4.744 0-7.197-5.666-3.95-9.125z" fill="#0182fc"/></g><g><path d="m217.562 217.419c-15.141 0-27.459-12.318-27.459-27.459s12.318-27.459 27.459-27.459c15.142 0 27.46 12.318 27.46 27.459s-12.319 27.459-27.46 27.459zm0-39.919c-6.87 0-12.459 5.589-12.459 12.459s5.589 12.459 12.459 12.459 12.46-5.589 12.46-12.459-5.59-12.459-12.46-12.459z" fill="#4fc123"/></g><path d="m210.062 134.75v46.25c0 4.142 3.357 7.5 7.5 7.5s7.5-3.358 7.5-7.5v-46.25z" fill="#5a5a5a"/><g><path d="m227.062 135.75h-19c-1.657 0-3-1.343-3-3v-15c0-1.657 1.343-3 3-3h19c1.657 0 3 1.343 3 3v15c0 1.657-1.343 3-3 3z" fill="#9c9c9c"/></g><path d="m215.603 132.75v-15c0-1.657 1.343-3 3-3h-10.541c-1.657 0-3 1.343-3 3v15c0 1.657 1.343 3 3 3h10.541c-1.657 0-3-1.343-3-3z" fill="#838383"/><g><path d="m290.562 217.419c-15.141 0-27.459-12.318-27.459-27.459s12.318-27.459 27.459-27.459c15.142 0 27.46 12.318 27.46 27.459s-12.319 27.459-27.46 27.459zm0-39.919c-6.87 0-12.459 5.589-12.459 12.459s5.589 12.459 12.459 12.459 12.46-5.589 12.46-12.459-5.59-12.459-12.46-12.459z" fill="#0182fc"/></g><path d="m283.062 134.75v46.25c0 4.142 3.357 7.5 7.5 7.5s7.5-3.358 7.5-7.5v-46.25z" fill="#5a5a5a"/><g><path d="m300.062 135.75h-19c-1.657 0-3-1.343-3-3v-15c0-1.657 1.343-3 3-3h19c1.657 0 3 1.343 3 3v15c0 1.657-1.343 3-3 3z" fill="#9c9c9c"/></g><path d="m288.603 132.75v-15c0-1.657 1.343-3 3-3h-10.541c-1.657 0-3 1.343-3 3v15c0 1.657 1.343 3 3 3h10.541c-1.657 0-3-1.343-3-3z" fill="#838383"/><g><path d="m363.644 217.419c-15.142 0-27.46-12.318-27.46-27.459s12.318-27.459 27.46-27.459c15.141 0 27.459 12.318 27.459 27.459s-12.319 27.459-27.459 27.459zm0-39.919c-6.87 0-12.46 5.589-12.46 12.459s5.59 12.459 12.46 12.459 12.459-5.589 12.459-12.459-5.589-12.459-12.459-12.459z" fill="#fe646f"/></g><path d="m356.144 134.75v46.25c0 4.142 3.357 7.5 7.5 7.5s7.5-3.358 7.5-7.5v-46.25z" fill="#5a5a5a"/><g><path d="m373.143 135.75h-19c-1.657 0-3-1.343-3-3v-15c0-1.657 1.343-3 3-3h19c1.657 0 3 1.343 3 3v15c0 1.657-1.343 3-3 3z" fill="#9c9c9c"/></g><path d="m361.603 132.75v-15c0-1.657 1.343-3 3-3h-10.459c-1.657 0-3 1.343-3 3v15c0 1.657 1.343 3 3 3h10.459c-1.657 0-3-1.343-3-3z" fill="#838383"/><path d="m61.359 415c44.742 58.933 115.543 97 195.244 97s150.502-38.067 195.244-97z" fill="#80d261"/><path d="m46.603 393.247v-43.247h-20.57c5.46 15.166 12.37 29.638 20.57 43.247z" fill="#fd4755"/><g><g><g><path d="m151.103 447h-23c-4.142 0-7.5-3.358-7.5-7.5s3.358-7.5 7.5-7.5h23c4.142 0 7.5 3.358 7.5 7.5s-3.358 7.5-7.5 7.5z" fill="#68ca44"/></g></g><g><g><path d="m211.103 478h-23c-4.142 0-7.5-3.358-7.5-7.5s3.358-7.5 7.5-7.5h23c4.142 0 7.5 3.358 7.5 7.5s-3.358 7.5-7.5 7.5z" fill="#4fc123"/></g></g><g><g><path d="m268.103 447h-23c-4.142 0-7.5-3.358-7.5-7.5s3.358-7.5 7.5-7.5h23c4.142 0 7.5 3.358 7.5 7.5s-3.358 7.5-7.5 7.5z" fill="#68ca44"/></g></g><g><g><path d="m328.103 478h-23c-4.142 0-7.5-3.358-7.5-7.5s3.358-7.5 7.5-7.5h23c4.142 0 7.5 3.358 7.5 7.5s-3.358 7.5-7.5 7.5z" fill="#68ca44"/></g></g><g><g><path d="m385.103 447h-23c-4.142 0-7.5-3.358-7.5-7.5s3.358-7.5 7.5-7.5h23c4.142 0 7.5 3.358 7.5 7.5s-3.358 7.5-7.5 7.5z" fill="#4fc123"/></g></g></g></g></svg>