<?xml version="1.0" encoding="utf-8"?>
<!-- Generator: Adobe Illustrator 25.0.1, SVG Export Plug-In . SVG Version: 6.00 Build 0)  -->
<svg version="1.1" id="레이어_1" xmlns="http://www.w3.org/2000/svg" xmlns:xlink="http://www.w3.org/1999/xlink" x="0px"
	 y="0px" viewBox="0 0 240 240" style="enable-background:new 0 0 240 240;" xml:space="preserve">
<style type="text/css">
	.st0{fill:none;}
</style>
<image style="overflow:visible;" width="496" height="446" xlink:href="10AF14B3.jpg"  transform="matrix(0.4934 0 0 0.4934 -337.1356 -220.0433)">
</image>
<path class="st0" d="M0,0h240v240H0V0z"/>
<path class="st0" d="M-344.1,0h240v240h-240V0z"/>
<path d="M-224.1,20c-55.2,0-100,44.8-100,100c0,49.9,36.6,91.3,84.4,98.8v-69.9h-25.4V120h25.4V98c0-25.1,14.9-38.9,37.8-38.9
	c10.9,0,22.4,2,22.4,2v24.6h-12.6c-12.4,0-16.3,7.7-16.3,15.6V120h27.7l-4.4,28.9h-23.3v69.9c47.8-7.5,84.4-48.9,84.4-98.8
	C-124.1,64.8-168.9,20-224.1,20z"/>
<path d="M119.9,20.8c-55,0-99.6,44.6-99.6,99.6S64.9,220,119.9,220s99.6-44.6,99.6-99.6S174.9,20.8,119.9,20.8z M170.1,165.9h-33.6
	l-33.1-45.5v45.5H70.6V74.5h34.2l31.2,47.2V74.5h34.2V165.9z"/>
</svg>
